<?xml version="1.0" encoding="UTF-8"?>
<svg width="1200pt" height="1200pt" version="1.1" viewBox="0 0 1200 1200" xmlns="http://www.w3.org/2000/svg">
 <path d="m627.37 290.81c2.3438 1.4062 5.3906 0.9375 7.1719-0.98438 1.0312 2.5781 3.8906 3.8438 6.5156 3.3281 6.8906-1.0781 13.922-3.1406 20.953-1.7344 14.484 3.9375 29.438 5.625 44.062 8.9531 7.4062 1.4062 15 1.8281 22.172 4.2188 9.75 4.3125 18.188 9.2812 28.453 13.688 5.4375 2.3438 10.359 6.8438 15.094 8.8594 4.9219 1.5469 9.8906-4.7344 6.5625-9-3.1875-3.9375-6.5156-7.6875-10.125-11.203-8.7656-8.2969-16.922-17.297-26.016-25.219-27.094-22.828-71.484-50.812-102.28-18.938-5.3438 6.375-10.172 13.125-14.484 20.203-1.6406 2.6719-0.79688 6.2344 1.875 7.875zm27.188-25.5c0.32812 0.375 0.75 0.70312 1.2188 0.9375 0 0 0.046875 0 0.046875 0.046875-0.28125 0-0.60938-0.046875-0.89062-0.046875-0.79688-0.046875-1.5938 0.09375-2.2969 0.375 0.60938-0.46875 1.2656-0.89062 1.875-1.3125zm-5.3906 4.2656c0.32812-0.32812 0.65625-0.65625 0.98438-0.9375-0.23438 0.32812-0.42188 0.65625-0.60938 0.98438-0.28125 0.65625-0.46875 1.3594-0.46875 2.1094-1.1719 0.65625-2.3438 1.3594-3.4688 2.0625 1.125-1.4531 2.2969-2.8594 3.5156-4.2188zm-327.47 91.453c0.89062-0.09375 1.7344-0.23438 2.5781-0.23438 2.3438 1.3125 5.4844 0.79688 7.2188-1.3594 0.79688-0.98438 1.2188-2.1562 1.2656-3.375 3.7969 2.5312 7.125-0.60938 9.8906-3.4688 3.5625 1.2656 7.9688 1.7344 10.781 1.9219 17.812-0.1875 35.531-0.84375 52.781-5.7188 6.4219-2.3438 11.812-6.8438 17.531-10.453 2.625-2.3438 6.9844-4.4062 8.2969-7.4531 5.0625-1.0781 6.4688-9.1406 0.375-11.062-6.2812-1.7344-12.328-4.4062-18.984-4.3125-5.3438-0.046875-10.734 0.1875-16.078 0.84375-15.703 1.0312-30.328 7.0781-43.875 14.672-6.8438 3.8438-13.594 8.0156-19.125 13.641-2.1094 1.5938-3.9375 3.9844-4.1719 6.375-4.5-3.0938-10.406-1.125-15.375-0.23438-4.6875 0.32812-9.5156 4.0312-6.9844 9.0938 3 5.5312 9.2812 1.5938 13.922 1.125zm79.266-33.469c4.8281-0.46875 9.7031-0.79688 14.578-0.46875 1.125 0.14062 2.25 0.375 3.3281 0.65625-0.09375 0.046875-0.14062 0.14062-0.23438 0.1875-5.625 3.7031-11.062 8.4844-17.531 10.359 0-2.9062-0.32812-5.8594 0.09375-8.6719 0.046875-0.75 0-1.4531-0.1875-2.0625zm-19.688 3.4219c-0.09375 3.6562-0.1875 7.5469 1.3125 10.781-5.0625 0.46875-10.172 0.65625-15.234 0.70312-4.0312 0.375-8.0625 0.75-12.094 0.65625 8.3438-4.5938 16.875-9.2344 26.016-12.141zm387.89 45.562c-3.1875-1.5938-6.6562-2.6719-9.6562-4.5469-0.9375-0.70312-1.8281-1.0781-2.7656-1.2188-2.9062-4.8281-5.1562-10.125-8.3906-14.766-7.875-10.969-21.656-15.469-34.172-18.75-6.9844-2.4844-14.391-1.5938-21.609-1.1719-9.5625 0.65625-18.562-4.3594-28.172-2.6719-8.0156 1.3125-16.172 3.4688-23.391 7.0781-3.7031 2.3438-5.8594 7.9688-1.9219 11.109 2.7188 2.25 7.0781 1.4062 8.6719-1.7812 0.70313-0.23438 1.4531-0.51562 2.1562-0.75-0.46875 2.7188 0.84375 5.7188 4.3125 6.6094 10.828 10.641 26.203 13.734 40.547 17.016 6.0938 1.5 11.953 3.8438 18.047 5.25 9.1875 1.875 18.609 1.3125 27.891 1.9219 2.8594 0 6.8438 0.70312 10.078 0.14062 0.32813 0.09375 0.60938 0.14062 0.9375 0.1875 0.1875 0.1875 0.375 0.42188 0.60938 0.60938 3.6562 2.8594 8.25 4.0312 12.281 6.1406 6.8906 2.9062 11.391-7.2188 4.5938-10.453zm-73.125-15.188c-3.5625-0.9375-7.0781-1.8281-10.641-2.6719-6.75-1.4062-12.938-4.0781-18.891-7.5-2.1562-1.6875-4.1719-3.8438-6.5156-5.3438 3.6562-0.9375 7.4062-1.4531 11.156-1.2188 7.3125 1.125 14.672 3.5625 22.266 2.8125 0.9375-0.09375 1.8281-0.1875 2.7656-0.28125-0.5625 0.84375-1.0312 1.7344-1.2188 2.7188-0.23438 3.7969-0.14063 7.9219 1.125 11.438zm39.188 6.8438c-6.8438-0.42188-13.875 0.046875-20.578-1.5-0.79688-0.23438-1.5938-0.46875-2.3438-0.75 2.7188-4.4531 2.0625-12.375-0.42188-17.578 8.0156 1.7812 15.703 5.1562 22.547 9.5625 3.7031 2.7656 6 6.6094 8.0625 10.688-2.4375-0.14062-4.8281-0.28125-7.2656-0.42188zm-316.55-3.4688c-3.1406 1.5938-6 4.2656-4.5 8.1094 4.6406 9.0938 13.828-0.89062 18.188-5.2969 7.4531-7.6406 14.156-15.938 20.859-24.281 4.5938-5.9062-3.9844-12.938-8.8594-7.2188-2.7656 3.375-5.5312 6.7969-8.2969 10.172-5.4844 6.4688-10.875 13.031-17.391 18.516zm243.1 35.859c6.5156 3.7031 12.281-5.7188 5.9531-9.75-7.1719-3.9844-14.016-8.5781-19.969-14.297-4.6875-3.8906-10.219-15.516-17.062-8.7188-2.2031 2.7188-1.3594 6.5625 1.3594 8.5781 8.0156 9.6562 18.469 18.234 29.672 24.188zm-211.22 46.125c5.9062 15.047 16.688 28.5 30.75 36.609 14.672 5.9531 30.797 5.25 46.359 5.4375 13.734 1.4062 25.734-6.2344 38.672-9.3281 12.938-2.8594 24.938-8.6719 36.984-13.969 10.031-3.9375 20.578-11.484 21.234-23.109 0.70312-5.2031 1.9219-10.5 0.51562-15.703-0.79687-2.8125-2.4844-5.25-3.6562-7.875-1.7812-4.3594-3.6562-10.266-8.6719-11.578-4.7344-0.9375-8.625 5.1094-5.5312 8.9531 3.0469 3.9375 4.875 9.6562 7.0781 14.25 0.14063 2.3438-0.09375 4.6406-0.42187 7.0312-0.42188-0.14062-0.89063-0.28125-1.3125-0.375-8.1094-6.7969-20.812 5.2031-26.391 11.016-4.5469 3.7031-2.8125 9.75 1.7812 11.812-10.125 4.3125-20.438 8.0156-31.312 10.453-6.8906 1.9219-13.312 5.4844-20.344 6.7969-6.8438 0.65625-13.734 0.046875-20.578 0.09375-8.8125-0.09375-17.531-0.46875-25.969-3.0469 0.75-2.0156 0.375-4.4062-1.5938-6.2344-0.32813-3.75-4.4531-5.2031-7.0781-7.2656-4.7344-3.9844-9.7031-9.6562-16.125-10.219-1.4531-2.625-2.7188-5.2969-3.75-8.1094-4.5938-19.641 6.3281-38.531 14.766-55.594 5.7188-11.156 12.609-21.703 17.906-33.094 3.5156-6-4.875-11.859-9.3281-6.5156-1.5469 2.1094-2.2969 4.7344-3.5625 7.0312-13.969 27.234-39.328 60.656-30.375 92.578zm196.69 72.891c-7.2656-3.8906-14.578-8.5781-22.594-10.641-3.7969-1.2656-9.0469-1.2656-12.281-1.8281-17.25-2.3906-34.641-4.4531-52.078-2.2031-37.781 3.6562-75.703 5.3438-113.53 8.25-18.938 2.1094-38.109 2.4375-56.578 7.4531-6.0469 1.3594-12.094 2.8125-18.141 4.3594-2.9531 0.75-6.2344 1.3594-8.5781 3.4219-9.8906 10.922-15.141 29.438-7.1719 42.75 5.1094 9.3281 11.484 11.297 21.469 12.188 7.3594 0.98438 9.1875-9.9375 1.7812-11.297-3.0469-0.60938-6.2812-0.46875-9.1875-1.6406-5.4844-4.3125-7.6875-11.719-6.0938-18.469 1.3594-5.2031 3.0469-10.547 6.4688-14.766 6.8438-2.1094 13.922-3.4219 20.906-5.2031 15.094-4.1719 30.703-5.0625 46.219-6.5156 18.094-2.0625 36.281-2.9062 54.469-3.8438 18.703-1.3594 37.406-2.7188 56.109-4.2188 13.969-1.2188 28.031-2.9531 42.047-1.4531 9.6094 1.1719 20.906 2.4375 30.75 3.8438 0.42188 0.14062 0.84375 0.28125 1.2188 0.32812 13.828 5.2969 26.297 13.594 38.766 21.469 5.9062 4.6406 12.938-4.0781 7.2188-8.8594-6.75-4.9219-14.156-8.8594-21.281-13.219zm184.74-206.76c-0.046875-0.14062-0.09375-0.32812-0.14062-0.46875 0 0.14062 0.046875 0.28125 0.046875 0.46875zm-59.344 170.9c-2.6719 4.125-5.0156 8.4844-7.5938 12.656-2.9062 4.6406-5.8594 9.3281-8.9062 13.922-2.8125 2.8125-4.9688 7.3594-1.3125 10.453 6.2812 4.8281 10.641-3.9375 13.594-8.3438 4.8281-7.3594 9.1875-15 13.828-22.5 3.9375-6.4219-5.3906-12.375-9.6094-6.2344zm401.9 577.13c-2.9531-31.641-15.75-61.453-20.062-92.859-2.625-21.141-6.9375-41.953-10.781-62.859-2.5781-21.75-7.6406-44.438-14.25-65.578-3.9844-12.75-6.75-25.875-11.859-38.25-5.5781-12.281-12.562-23.953-17.812-36.422-4.5-10.266-10.734-19.641-15.562-29.719-4.5938-11.062-8.9062-22.219-15.141-32.484-3.6094-6.1406-7.2656-12.375-11.953-17.719-8.2969-8.9062-17.531-16.641-25.688-25.922-7.3594-7.7344-12.938-16.828-19.828-24.938-8.7188-10.547-19.078-19.453-29.531-28.266-11.344-10.406-24.141-18.891-36.375-28.172-10.266-9.4688-20.156-19.359-30.516-28.734-8.5781-8.7188-17.203-17.438-26.672-25.172-9.1875-7.6406-18.938-14.625-27.375-23.156-6.6562-7.0781-13.125-14.297-19.406-21.75-0.84375-1.2656-1.8281-2.5312-2.8594-3.5625-0.09375-1.8281-0.1875-3.7031-0.28125-5.5312 0.9375-1.4062 1.8281-2.7656 2.7656-4.2188 1.875 0.14062 3.75 0.28125 5.625 0.28125 7.0312 0 14.109-1.0781 20.766-3.1406 22.031-10.078 38.25-30.375 49.734-51.188 4.4062-8.2031 7.7812-16.828 10.781-25.641 3.7031-10.266 7.5938-21.188 5.8594-32.297-2.0625-11.531-5.5312-25.031-17.203-30.375-17.812-8.1094-31.875-9.9375-49.688-0.51562-4.9219 2.3906-10.172 4.6875-15 7.5-1.0781-22.547-14.391-42.75-23.672-62.859-11.344-20.859-24-40.969-36.234-61.312-5.8594-12.188-14.203-22.734-22.172-33.609-5.2031-8.3906-13.734-15.984-21.703-22.078-8.3906-5.2031-15.469-12.141-23.484-17.812-4.0781-2.4844-8.3438-4.5938-12.469-6.9844-10.969-5.8125-19.922-14.812-31.688-19.172-12.422-4.6406-24.891-9.2344-36.938-14.812-7.2656-3.6094-15.141-5.9062-23.156-6.9844-12.094-1.5469-24.047-4.2656-36.188-5.4844-8.9062-0.28125-17.812-0.23438-26.672-0.9375-8.5312 0.14062-17.062 1.125-25.594 1.6406-30.938 0.70312-62.016 8.5781-88.641 24.562-8.0156 4.6875-16.266 9.0469-23.578 14.766-10.594 8.5312-19.875 18.562-30.656 26.906-10.5 8.1094-21.047 16.406-28.359 27.656-1.4062 1.0781-2.2031 2.7656-2.25 4.5-7.4062 10.922-14.719 21.938-20.766 33.562-5.0625 11.062-9 22.594-14.672 33.375-3.375 6.0469-7.0781 11.906-10.359 17.953-4.7344 8.9531-7.4531 17.859-11.016 27.234-2.6719-3.7031-5.7188-7.1719-8.7656-10.406-12.656-12.656-27.938-10.453-39.141 2.7188-8.1562 9.2812-12.797 21-17.391 32.297-6 15.891-9.6562 32.719-7.0312 49.688 1.0781 9.9844-1.125 20.438 1.7344 30.141 4.4531 8.2969 10.969 16.875 20.25 19.875 3.3281 1.0312 6.8438 1.125 10.125 2.1562 1.5 0.5625 2.8594 0.51562 4.0312 0.09375-0.9375 4.4062-1.6875 8.8125-1.8281 13.312 0 7.0781-0.46875 14.25 0.14062 21.281 1.3125 10.266 7.4062 18.562 14.672 25.828-0.32812 1.1719-0.28125 2.4844 0.32812 3.7969-1.0781 10.969-0.5625 21.797 0.09375 32.766-0.14062 7.875-0.65625 15.75-1.0781 23.625-1.7344 0.32812-3.3281 1.4531-4.0781 3.1406-2.8125 3.3281-5.6719 6.6094-8.6719 9.7969-16.734 18.141-34.031 35.812-51.047 53.672-16.406 16.312-33.234 32.203-48.141 49.969-12.562 13.734-25.875 26.766-37.312 41.484-15.516 19.031-27.188 40.734-39.422 61.922-8.5781 14.484-11.906 31.078-16.594 47.016-7.0312 23.297-15.375 46.219-18.938 70.406-3.75 25.172-8.9531 50.062-11.812 75.375-3.1875 17.672-6.2344 35.344-8.7656 53.156-3.0938 15.516-7.2656 30.938-8.5312 46.734 0.75 9.375 1.0312 18.797 0.84375 28.219-0.046875 6.0469 0.42188 12.047 0.60938 18.141 0.42188 3.8906-0.98438 8.6719 0.60938 12.234-0.89062 1.4531-1.125 3.2344-0.42188 4.9688 1.0781 2.7188 4.125 4.125 6.8438 3.375 10.922-2.0625 20.672 1.2656 32.062 0.65625 5.7656-0.1875 11.484-1.2188 17.25-1.6406 7.3594-0.375 14.625 1.0312 21.938 1.0312 11.578-0.23438 23.109 0 34.547 1.9219 23.531 2.4844 47.25-2.0625 70.688 2.2969 18.609 2.1562 36.844-2.9531 55.312-4.1719 7.5-0.23438 14.953 0.70312 22.406 0.51562 13.594-0.70312 26.812-4.5938 40.266-6.5156 14.953-3.2344 30.047 1.0312 45.141-0.5625 38.016-4.3594 76.359-6.4688 114.61-7.875 10.688-0.60938 21.422-0.60938 32.109-1.0312 12.891-0.65625 25.969-2.4375 38.906-1.3594 13.359 1.5938 26.578 4.5469 40.078 4.4062 16.828-0.42188 34.453-1.6406 51.609-1.125 15.844-0.70312 31.5 0.42188 47.109 3.0469 12.797 1.5 25.688 0.84375 38.438 2.0156 16.828 1.6875 33.656-0.42188 50.484-0.60938 23.906 0.14062 47.812 0 71.672 0 21.328 0.46875 42.141-5.2031 63.328-6.6562 19.734-1.6406 39.562 1.2188 59.297-0.5625 10.312-1.0781 20.531-3.8906 30.938-3.6562 0.9375 1.4531 2.5312 2.4375 4.4062 2.5312 2.0625-0.046875 3.4219-0.75 4.3594-1.8281 13.734 1.7344 27.281 5.7656 41.297 6.0469 14.672 2.9531 28.922 1.2656 43.875 1.3125 12.703 0.5625 25.312 0.46875 38.016-0.046875 6.6094 0.28125 13.125-1.6406 19.734-1.0312 2.9062 0.09375 5.4375-2.25 5.7656-5.0625 2.4375-0.375 4.5938-2.1094 5.0625-4.6875 2.0156-11.25 0.84375-21.984 0.46875-33.562zm-324.71-714.66c1.3594-2.0625 3.6094-3.3281 5.625-4.6406 8.8125-4.7812 17.719-9.6094 27.281-12.75 10.453-3.3281 21.844 1.0781 31.219 5.8125 4.3594 2.9062 5.7188 8.3438 7.2188 13.078 3.7031 10.078 1.1719 21.469-2.5781 31.312-6.4688 20.484-16.781 39.703-31.5 55.5-13.266 12.609-22.172 19.734-38.625 19.828 4.9688-8.2969 9.6562-16.172 13.172-25.406 0.9375-4.875-0.1875-10.031-0.46875-14.953-0.70313-4.5469-1.5469-9.0469-2.3906-13.547 4.3125-6 9.0938-11.719 14.109-17.109 8.4375-8.5781 17.812-18.094 29.109-23.062 11.297-0.42188 6.6562-17.484-7.3594-9.2812-15.469 8.3906-27.797 21.469-39.047 34.875-0.65625-2.6719-1.3594-5.3438-2.1094-8.0156-2.3438-8.2969-5.625-16.219-8.6719-24.234 1.9688-1.9688 3.3281-5.2969 4.9219-7.4062zm-581.68 61.359c-0.51562-0.5625-1.2188-1.0312-2.0625-1.4062-4.0781-1.7344-8.7188-1.3594-12.797-3.1406-4.875-3.0469-9.6562-8.4844-11.625-13.875-0.60938-5.7656-0.14062-11.625-0.28125-17.438 0-8.2969-1.4531-15.516-1.125-24 1.4531-15.469 7.2188-30.234 13.781-44.156 5.1562-10.969 17.766-29.109 30.516-16.078 4.6406 4.875 9.4688 10.266 12.188 16.547-3.2344 8.7656-6.1875 17.578-8.8594 26.531-3.7031-6.1875-8.8594-11.484-13.922-16.594-5.4375-5.2031-13.266 2.625-8.1094 8.0625 7.875 7.2656 14.625 15.938 17.344 26.484l-0.42188 1.8281c-1.2656 5.5781-2.7656 11.109-3.9844 16.688-0.23438 0.79688-0.28125 1.5469-0.14062 2.3438-3.4219 7.8281-4.5469 16.594-6.8906 24.844-1.0312 4.4531-2.3438 8.9062-3.5625 13.359zm7.125 40.125c0-6.4688-0.1875-12.938 0.28125-19.359 1.9219-15.281 7.4062-29.906 10.594-45 0.89062-3.5625 1.9688-7.0312 3.2344-10.453 0.42188-1.0312 0.5625-2.0156 0.42188-2.9531 1.125-4.9219 2.3906-9.8438 3.5625-14.766 0.046875-0.32812 0.14062-0.65625 0.23438-0.98438 0.84375-1.2656 1.125-2.9062 1.0781-4.7344 2.4844-10.312 5.625-20.438 8.9531-30.516 0.5625 1.9688 1.9219 3.6094 4.5938 4.3594 3.7969 0.98438 6.6562-1.9219 9.5625-3.8906 3.5156 2.625 9.0469-0.09375 8.9531-4.5469 1.125-3.375 5.4375-4.1719 8.1562-6.0469 3.1406-1.6406 6.375-3.1406 9.6094-4.6406 26.906-12.422 54.984-19.078 84.422-24.516 8.7188-1.8281 15.703 0.28125 21.938 6.6094 3.9844 3.4688 10.547-0.60938 9.1875-5.7188-1.0781-3.4688-4.2656-5.5312-6.4688-8.2969-4.5469-5.0156-9.3281-9.9844-15.234-13.312-1.1719-2.8594-4.3125-3.7031-7.1719-3.5156-2.7656-1.0781-5.5312-1.9688-8.4375-2.7188-17.578-5.3906-29.109-4.9688-45.656 3.4219-9.6562 4.9688-19.734 9.2812-28.641 15.609-5.25 3.1406-8.9062 8.3906-13.734 11.812-9.2344 4.7344-18.703 10.078-24.984 18.516 3.5156-9.1406 6.8438-18.375 10.359-27.469 5.2031-11.438 12.938-21.469 17.766-33.094 6.4688-15.422 12.375-31.078 22.5-44.578 3.2812-5.0625 6.375-10.219 9.75-15.188 1.0781-1.2188 1.9688-2.7188 2.4375-4.2188 1.3594-1.9219 2.7188-3.9375 4.4062-5.5781 7.875-8.5312 17.719-14.812 26.391-22.5 8.4844-6.8906 15.844-15.188 24.562-21.844 16.406-11.062 33.703-21.234 52.594-27.469 16.312-5.2969 33.188-8.3906 50.344-8.7656 9.9844-0.375 19.969-1.9688 29.953-1.5938 9.6562 1.3125 19.5-0.09375 29.109 1.4531 12 2.4375 24.234 3.6094 36.234 5.9531 14.766 4.3594 28.172 12.281 42.844 16.969 16.219 4.6406 28.312 16.922 43.172 24.281 9.375 4.4531 16.453 12.141 24.938 17.953 6.9844 4.5469 13.266 10.078 19.031 16.078 3.7969 4.5938 6.7031 9.8438 10.5 14.531 6.2812 7.4531 11.109 15.891 15.656 24.516 3.9375 6.5625 7.9219 13.125 11.953 19.641-0.28125-0.23438-0.5625-0.42188-0.89062-0.60938 0.23438 0.375 0.51562 0.79688 0.75 1.1719 1.8281 2.8594 3 5.9531 4.5 9 0.79688 1.4531 1.5469 2.9062 2.4375 4.3125 0.9375 1.3125 1.8281 2.6719 2.7188 3.9375 0.42188 0.65625 0.89062 1.2656 1.2656 1.9219 0.32812 0.5625 0.60938 1.1719 0.84375 1.8281 0.32812 0.42188 0.65625 0.84375 0.9375 1.2656-2.25-4.7344-4.5938-9.375-7.1719-13.969 6.8906 11.438 13.688 22.969 19.922 34.828 7.6406 16.594 18.188 32.812 20.859 51.188 0.375 0.84375 0.60938 1.7344 0.70312 2.7188 0.1875 1.7344 0.046875 3.5156 0.046875 5.25 0 1.9219-0.42188 3.8438-0.79688 5.7656l-0.14062 0.70312c-0.046875 0.23438-0.14062 0.51562-0.1875 0.75-0.14062 0.5625-0.23438 1.0781-0.42188 1.6406-0.14062 0.51562-0.28125 0.98438-0.46875 1.4531-0.09375 0.32812-0.1875 0.70312-0.32812 1.0312 0 0.046875-0.046875 0.09375-0.046875 0.1875v0.14062c-0.32812 0.9375-0.70312 1.875-1.125 2.8125-0.046875 0.14062-0.09375 0.23438-0.1875 0.375-0.42188 0.89062-0.89062 1.6875-1.4062 2.5312-0.1875 0.28125-0.32812 0.5625-0.51562 0.84375-0.70312 0.98438-1.4531 1.9688-2.25 2.9062 5.7188 14.062 10.453 28.5 13.641 43.312-0.84375 2.25-0.70312 4.4531 1.2656 6.375 0.42188 2.25 0.79688 4.5 1.125 6.75 0.51562 6.1875 3 13.172-0.42188 18.797-3.6094 6.75-7.0312 13.547-11.156 20.016-3.8438 6-7.7812 11.906-11.672 17.906-1.5938 2.4844-0.79688 5.8125 1.5 7.5469 0.14062 4.2656 0.375 8.5312 0.70312 12.797 0.32812 6.75 0.09375 13.547-0.60938 20.297-0.79688 3.9844-0.5625 9.2344 4.4062 9.9844 1.8281 0.28125 3.7969-0.42188 5.0625-1.7344 1.0312 7.6875 0.98438 15.562 1.7344 23.25 1.0312 6.1875 2.2969 12.234 1.5 18.562-0.14062 3.4219 0.32812 6.8438 0.28125 10.219-0.9375 4.4531-1.8281 8.9062-2.6719 13.406-1.2188 6-1.5938 12.188-3.4219 18.047-2.625 6.375-5.3438 12.703-8.3438 18.891-11.156 1.7344-22.406 2.5781-33.703 2.9062-11.719 1.1719-23.109 4.7344-34.969 5.1094-21.375 0.23438-42.797 1.9688-63.891 5.4375-20.297 2.9062-39.844 8.9531-59.672 13.688-22.594 3.6094-44.531 10.312-67.078 14.156-20.953 2.5312-41.859 7.9688-62.953 9.3281-11.203 0.046875-22.266-2.7188-33.562-2.2969-11.625 0.046875-23.203-0.84375-34.781-1.125-9.4219-1.3125-18.891-2.3906-28.453-2.625-10.688-0.75-20.203-6.2812-30.375-9.0938-11.812-3.5156-23.531-7.3594-35.344-10.875-14.812-4.7344-31.828-8.2031-41.016-22.078-4.125-7.2188-7.5469-14.859-9.2344-23.062-1.6406-13.406-0.89062-26.953-2.2031-40.453 0.046875-20.672 3.0938-41.25 0.89062-61.875 0.046875-2.9062 0.23438-5.8125 0.42188-8.7188 0.375 0.32812 0.75 0.70312 1.125 0.98438 5.9062 4.5938 12.938-4.0312 7.2188-8.8594-9.4219-8.9531-22.641-18.141-23.203-32.344zm67.828-155.44c7.5938-3.4688 15.188-8.3438 23.625-9.1875-2.9531 0.9375-5.8594 1.9688-8.7656 3.1406-4.9688 1.9219-9.9844 3.8906-14.859 6.0469zm495.71 53.203v0.046875zm-99.797 294.1c-1.6875 2.1562-3.4219 4.2656-5.3438 6.1875-9.1875 7.2188-19.406 12.75-29.625 18.375-0.79688-6.9844-1.8281-13.969-2.0156-21 4.875-0.75 9.7969-1.3594 14.719-1.8281 7.4062-1.0781 14.859-1.4531 22.312-1.7344zm-79.359 12.234c10.172-2.5312 20.438-4.875 30.75-6.75 0.14063 2.9062 0.70313 5.8594 0.98438 8.7188 0.75 5.5312 1.2656 11.062 1.6875 16.594-6.9375 4.5-13.172 10.078-20.344 14.25-4.4531 2.0156-8.6719 4.4531-12.891 6.8906 0-13.219-1.125-26.484-0.1875-39.703zm-44.156 10.031c6.7969-1.4062 13.641-2.7188 20.438-3.9844l12.094-3.0938c-0.28125 12.375 0.28125 24.797 0.42188 37.172 0 1.9219 1.125 3.6094 2.6719 4.5938-2.3438 1.2656-4.7344 2.4375-7.2188 3.4688-8.8125 2.8125-17.766 5.25-26.484 8.5312v-0.046875c0.60937-15.609-0.14063-31.125-1.9219-46.594zm-8.4844 50.016c-4.6875 0.89062-9.5625 1.0781-14.297 1.8281-1.5938-14.953-3-29.953-4.0312-44.953 0-0.1875-0.046874-0.42188-0.09375-0.60938 0.60938-0.14062 1.2188-0.23438 1.8281-0.375 4.5469-1.2188 9.1406-2.3438 13.688-3.4219 0.32812 2.7656 0.9375 5.5781 1.0312 8.2031 1.1719 12.047 1.3125 24.234 0.89062 36.328 0 1.125 0.375 2.1562 0.98438 3zm-24.891 10.359c-0.65625 0.14062-1.3125 0.375-2.0156 0.75-6.9844 4.7812-14.906 8.3438-23.109 10.078 0-0.23438 0-0.46875-0.046874-0.75-5.3438-17.719-4.0781-36.422-6.7031-54.562-0.09375-1.0781-0.28125-2.0625-0.51562-2.9531 9.2344-1.2188 18.422-2.625 27.562-4.3125 0 1.875 0.23437 3.8906 0.42187 5.5312 1.1719 15.422 2.7188 30.844 4.4531 46.219zm-36.469 11.953c-3.4219-0.046875-6.8438-0.42188-10.219-1.2188-4.4062-0.51562-8.1562-2.9062-12.094-4.7812-2.4375-1.3125-5.1562-1.7344-7.7812-2.5312-1.1719-13.359-3.7969-26.531-6.2812-39.703 2.7188-0.70312 4.0781-2.9062 4.1719-5.25 8.2969-0.89062 16.594-2.4844 24.797-3.9844 0.046876 0.046875 0.046876 0.09375 0.14063 0.14062 3.4219 18.328 1.5 38.906 7.3125 57.234zm-47.812-47.25c1.9688 10.547 3.9844 21.047 5.4375 31.688-1.3594 0.51562-2.7656 0.70312-4.125 1.125-1.2656-0.65625-2.8125-0.84375-4.3125-0.46875-7.5 2.0625-15.047 4.0781-22.781 5.1562 0.46875-14.812 0.28125-29.578 1.2656-44.484 0.046874-0.1875 0.09375-0.375 0.14062-0.5625 7.125 0.28125 14.203 0.75 21.234 1.8281 0.9375 0.046875 1.8281 0.09375 2.7188 0.14062-0.14063 1.7344 0 3.6094 0.42187 5.5781zm-37.125 33.516c0.14063 1.2188 0.046876 2.8125-0.09375 4.5469-7.0312-0.65625-13.969-1.7812-20.906-2.8594-3.375-0.5625-6.7031-1.4062-9.9844-2.3438 1.4531-0.9375 2.5781-2.4375 2.6719-4.2656 0.98438-11.484 0.1875-23.062 1.0312-34.5 0.98438-0.79688 1.5469-1.875 1.7812-3.0469 2.6719 0.1875 5.3906 0.32812 8.0625 0.375 6.2812 0.42188 12.562 0.5625 18.844 0.70312-1.9219 13.641-0.46875 27.703-1.4531 41.438zm-39.234-14.812c0.09375 3.2812-1.0312 8.0156 0 11.297-12-4.6875-23.203-11.531-33.844-18.938 0.51562-0.65625 0.89062-1.3594 1.0312-2.2031 1.5938-7.5469 2.625-15.516 6.2344-22.453 3.0469 0.84375 6.1406 1.5469 9.3281 1.875 6.2344 0.14062 12.375 0.84375 18.516 1.5 0 0.09375-0.046874 0.1875-0.09375 0.28125-2.0156 9.3281-0.5625 19.125-1.2188 28.594zm-37.547-35.953c-3.1875 6.7969-4.5469 14.344-6 21.703-9.8438-6.2344-20.062-12-29.016-19.5-6.7031-5.5781-11.812-12.797-17.953-18.938 11.859 3.7969 24 7.0312 35.672 11.062 5.9062 1.3594 11.625 3.6094 17.297 5.6719zm126.05 420.94c-47.297 1.1719-94.641 3.8438-141.71 8.8594-9.75 0.46875-19.406-1.125-29.109-1.125-13.172 0.65625-26.062 4.0312-39 6.2812-9.1406 1.9219-18.422 1.8281-27.703 1.125-15.844-0.79688-31.406 3.6562-47.109 4.5469-12.281 0.75-24.281-2.0156-36.516-2.5312-10.5-0.23438-20.953 0.60938-31.453 0.75-11.906 0.51562-23.578-2.0625-35.344-2.7656-7.5938-0.23438-15.234 0.28125-22.828-0.23438-8.2969-0.84375-16.547-1.3125-24.797-0.09375-12.094 2.5781-24.469-0.98438-36.516-0.32812-0.09375-0.28125-0.1875-0.51562-0.32812-0.79688 0.23438-12.328-0.84375-24.656-0.5625-37.031 0.14062-5.5781-0.375-11.203-0.79688-16.781 1.3125-13.5 4.4531-26.766 7.4062-40.031 2.1094-9.5625 2.9531-19.406 4.5938-29.062 1.9688-12.141 4.6875-24.188 6.1875-36.422 1.3125-12.609 3.375-25.125 5.8125-37.547 3.375-19.125 5.5781-38.484 10.594-57.234 4.8281-17.906 11.344-35.344 16.125-53.297 2.9062-10.734 5.7188-21.562 11.109-31.406 13.828-24.234 27.281-48.938 45.75-70.031 7.7344-9.75 16.688-18.422 25.172-27.469 15-17.109 30.516-33.703 47.016-49.359 15.703-15.844 30.938-32.156 46.453-48.234 5.0625-5.3906 10.172-10.734 15.094-16.266-0.09375 6.6562 0.09375 13.312 0.84375 19.969 0.046875 9.75 0.09375 19.641 1.875 29.297 4.2656 17.016 13.453 34.312 30.094 41.906 2.0625 0.9375 4.125 1.7812 6.2344 2.5781-1.125 1.3594-1.6406 3.2812-0.89062 5.3906 1.1719 3.375 4.6406 5.0156 6.9844 7.5 2.8594 2.7188 5.25 5.7656 7.8281 8.7188 11.625 14.109 27.75 23.156 43.125 32.719 14.719 10.594 29.812 20.531 47.016 26.578 12.891 5.0625 26.906 6.2344 40.547 7.8281 0.79688 1.4062 2.0625 2.3906 4.2188 2.7188 2.2969 0.1875 4.6406-1.0781 5.6719-3.1406 9.0469-0.98438 17.953-3.4219 26.719-5.8125 0.46875 0.23438 0.9375 0.46875 1.5469 0.5625 0.89062 0.1875 1.7344 0.14062 2.625 0 0.75 0.89062 1.6875 1.6875 2.8125 2.4375 0.046875 0.65625 0.09375 1.2656 0.14062 1.875 0.79688 16.594 0.42188 33.188 1.1719 49.781 1.1719 25.078 3.7031 50.109 5.25 75.188 1.8281 24.75 3.1406 49.5 6.375 74.062 3.6094 31.547 6.0469 63.234 10.781 94.734 1.9219 12.141 3.1875 24.375 4.9688 36.562 0.75 7.875 0.89062 15.844 2.2031 23.719-8.5312 0.51562-17.109 1.2656-25.688 1.4062zm101.67 2.3906c-13.453 1.0781-27.281-0.14062-40.594-2.4375-7.9219-1.5938-15.844-1.9688-23.812-1.8281-1.875-9.75-1.5-19.969-3.1406-29.812-7.3594-49.5-12.141-99.281-17.672-149.02-2.8594-41.25-6.2812-82.5-8.8594-123.74-0.79688-16.125-0.42188-32.25-1.1719-48.375 7.5469 3.5625 14.766 7.0312 23.344 7.4062 11.578 1.6875 23.672-0.84375 34.219-5.5781 3.2344-1.6406 6.4688-3.4219 9.5625-5.2969 4.4531 37.547 9.8906 74.953 14.766 112.45 2.4375 29.016 8.5312 57.516 11.719 86.438 2.0156 16.969 4.3125 33.938 5.6719 51 0.79688 14.297 1.8281 28.594 3.6562 42.844 1.6875 21.938 6.75 43.406 9.2812 65.25-5.6719 0.09375-11.297 0.28125-16.969 0.79688zm552.05-7.5c-3.5156 0.5625-5.2031 4.1719-4.4062 7.2188-4.125 0.09375-8.25 0.70312-12.375 1.1719-5.1562-0.09375-10.312 0.09375-15.469 0.375-16.359 0.375-32.719-0.98438-49.031 0.1875-6.75 0.5625-13.312-1.1719-19.969-1.8281-5.5312-0.42188-11.062-0.46875-16.547-1.6406-7.875-1.875-15.844-3.4688-23.906-4.3594-0.09375-1.8281-0.14062-3.6094 0.046876-5.0156-0.09375-11.203-0.51563-22.453-1.1719-33.656-1.125-37.734-4.875-75.562-1.3125-113.25 2.0156-17.062 3.8438-35.812 4.5938-53.391 0.1875-7.5469-10.875-7.9688-11.391-0.5625-0.84375 18.141-2.4844 35.062-4.6406 53.344-3.6562 36.516 0.23438 73.547 1.125 110.16 0.65625 12 1.2188 24 1.3594 36 0 1.7812 0 3.7031-0.046876 5.6719-6.75-0.046875-13.453 0.51562-20.156 1.9688-17.953 3.5625-36.234 1.5938-54.422 1.5938-14.719 0-29.344 1.5-43.781 4.125-42.422 6.6094-85.594 0.84375-128.26 3.9844-19.969 1.0312-40.594-1.4531-60.703-1.7812-15.281-1.9688-30.469-4.5-45.938-3.75-5.7656 0.09375-11.531 0-17.25 0-0.1875-1.2188-0.375-2.4844-0.5625-3.7031-3.8438-27.797-9.0469-55.219-11.109-83.297-2.4844-43.172-8.3906-86.109-15.188-128.76-5.7656-50.297-13.594-100.73-19.359-151.26 4.6875-0.5625 9.4219-1.2188 14.156-1.7344 9.7969-1.875 17.766-6.4688 27.562-9.0469 12.281-2.4844 22.922-8.8125 33.562-15.094 9.9844-4.2188 18.328-11.062 27.094-17.25 0.89062 0.51562 1.9219 0.84375 3.0469 0.79687 3.0938-0.09375 5.625-2.7656 5.5312-5.9062v-0.23437c12.609-6.9844 25.594-13.547 36.75-22.781 4.5469-4.4531 8.1094-9.7969 12.188-14.672 0.046875-0.09375 0.09375-0.14062 0.14062-0.23437 6.0938-0.28125 12.188-0.75 18.234-1.6406 7.3594-1.2656 14.672-3 22.078-3.7031 10.734-0.23438 21.562-1.0781 32.203-2.7656 5.8594 0.32813 9.1406-4.1719 11.109-9.0938 3.2344-7.8281 7.6406-15.422 9.2344-23.859 1.2656-10.172 4.0312-19.781 5.0625-29.953-0.75-7.125 0.5625-14.344-0.46875-21.375-2.0156-8.1562-1.6406-16.594-2.5312-24.891-0.32812-5.4375-0.89062-10.922-2.625-16.125-0.46875-1.5-1.6875-3-3.0469-3.7969-1.2656-0.75-2.5781-0.98437-3.75-0.9375 0.046875-2.2969 0.09375-4.5938 0.046875-6.8438 12.609 14.906 26.953 27.281 42.422 39.234 15.797 13.5 29.906 28.828 45.328 42.75 8.4375 9 18.422 16.219 28.5 23.156 12.891 9.9844 25.312 20.578 37.266 31.688 9.7969 9.5156 17.438 20.859 25.875 31.5 9.5156 11.391 21.141 20.766 30.938 31.875 6.9375 9.375 12.656 19.688 17.531 30.328 3.6562 9.1875 7.2188 18.422 12.328 26.906 9.75 17.156 17.062 35.531 26.578 52.828 6.4219 15.891 9.9844 32.766 15.141 49.078 6.2812 19.969 8.9062 40.688 12.188 61.266 5.2969 23.953 7.9688 48.328 12.469 72.422 7.7344 32.484 19.359 64.641 17.531 98.531zm-1004.1-88.828c-1.6875-24.75-2.8125-49.547-7.9688-73.875 0.79688-5.9062-7.2188-8.7656-10.453-3.7969-1.4062 2.1562-0.98438 4.875-0.5625 7.2656 4.5938 21.844 5.9062 44.156 7.2188 66.422 0.79688 11.953 2.2969 23.812 3.375 35.719 2.1094 24.797 1.5938 49.734 4.3594 74.484 0.28125 3.0938 3.0469 5.5312 6.1406 5.25 3.0469-0.23438 5.5312-3.0469 5.25-6.1406-1.0312-9.6562-1.6406-19.359-2.1094-29.062-0.5625-25.5-2.5781-50.859-5.25-76.219z"/>
</svg>
