<?xml version="1.0" encoding="UTF-8" standalone="no"?>
<svg
   xmlns:dc="http://purl.org/dc/elements/1.1/"
   xmlns:cc="http://creativecommons.org/ns#"
   xmlns:rdf="http://www.w3.org/1999/02/22-rdf-syntax-ns#"
   xmlns:svg="http://www.w3.org/2000/svg"
   xmlns="http://www.w3.org/2000/svg"
   xmlns:sodipodi="http://sodipodi.sourceforge.net/DTD/sodipodi-0.dtd"
   xmlns:inkscape="http://www.inkscape.org/namespaces/inkscape"
   version="1.1"
   id="Calque_1"
   x="0px"
   y="0px"
   width="128.21384"
   height="160.22464"
   viewBox="0 0 128.21383 160.22465"
   enable-background="new 0 0 841.89 296.667"
   xml:space="preserve"
   sodipodi:docname="coco.svg"
   inkscape:version="1.0.1 (3bc2e813f5, 2020-09-07)"
   inkscape:export-filename="R:\coco2.png"
   inkscape:export-xdpi="134.32593"
   inkscape:export-ydpi="134.32593"><metadata
   id="metadata94"><rdf:RDF><cc:Work
       rdf:about=""><dc:format>image/svg+xml</dc:format><dc:type
         rdf:resource="http://purl.org/dc/dcmitype/StillImage" /><dc:title></dc:title></cc:Work></rdf:RDF></metadata><defs
   id="defs92"><inkscape:path-effect
     effect="powerclip"
     id="path-effect889"
     is_visible="true"
     lpeversion="1"
     inverse="true"
     flatten="false"
     hide_clip="false"
     message="Utilise la règle de remplissage « fill-rule: evenodd » de la boîte de dialogue &lt;b&gt;Fond et contour&lt;/b&gt; en l'absence de résultat de mise à plat après une conversion en chemin." /><rect
     x="515.34076"
     y="283.18723"
     width="78.718712"
     height="40.026466"
     id="rect869" /><rect
     x="706.4671"
     y="124.74915"
     width="103.4017"
     height="92.727982"
     id="rect927" /><inkscape:path-effect
     effect="bspline"
     id="path-effect884"
     is_visible="true"
     lpeversion="1"
     weight="33.333333"
     steps="2"
     helper_size="0"
     apply_no_weight="true"
     apply_with_weight="true"
     only_selected="false" /><clipPath
     clipPathUnits="userSpaceOnUse"
     id="clipPath879"><g
       id="g887"
       style="display:none;fill:#6694a9;fill-opacity:1"
       clip-path="none"><path
         fill="#5f4c3f"
         d="m 571.06183,154.23573 c 0,4.6364 -3.75896,8.40067 -8.39535,8.40067 -4.63639,0 -8.3996,-3.76321 -8.3996,-8.40067 0,-4.63533 3.76321,-8.39321 8.3996,-8.39321 4.63639,0 8.39535,3.75788 8.39535,8.39321 z"
         id="path881"
         style="fill:#6694a9;fill-opacity:1;stroke-width:1.06486" /><path
         fill="#5f4c3f"
         d="m 532.67154,154.23573 c 0,4.6364 -3.75895,8.40067 -8.39428,8.40067 -4.63639,0 -8.39641,-3.76321 -8.39641,-8.40067 0,-4.63533 3.75895,-8.39321 8.39641,-8.39321 4.63533,0 8.39428,3.75788 8.39428,8.39321 z"
         id="path883"
         style="fill:#6694a9;fill-opacity:1;stroke-width:1.06486" /><path
         fill="url(#SVGID_2_)"
         d="m 522.37329,183.70463 43.73162,5.19651 c 0,0 -9.09389,29.45399 -25.11576,22.0873 -16.01973,-7.36882 -18.61586,-27.28381 -18.61586,-27.28381 z"
         id="path885"
         style="fill:#6694a9;fill-opacity:1;stroke-width:1.06486" /></g><path
       id="lpe_path-effect889"
       style="fill:#6694a9;fill-opacity:1"
       class="powerclip"
       d="M 489.3244,105.40163 H 616.73782 V 232.8182 H 489.3244 Z m 81.73743,48.8341 c 0,-4.63533 -3.75896,-8.39321 -8.39535,-8.39321 -4.63639,0 -8.3996,3.75788 -8.3996,8.39321 0,4.63746 3.76321,8.40067 8.3996,8.40067 4.63639,0 8.39535,-3.76427 8.39535,-8.40067 z m -38.39029,0 c 0,-4.63533 -3.75895,-8.39321 -8.39428,-8.39321 -4.63746,0 -8.39641,3.75788 -8.39641,8.39321 0,4.63746 3.76002,8.40067 8.39641,8.40067 4.63533,0 8.39428,-3.76427 8.39428,-8.40067 z m -10.29825,29.4689 c 0,0 2.59613,19.91499 18.61586,27.28381 16.02187,7.36669 25.11576,-22.0873 25.11576,-22.0873 z" /></clipPath></defs><sodipodi:namedview
   pagecolor="#ffffff"
   bordercolor="#666666"
   borderopacity="1"
   objecttolerance="10"
   gridtolerance="10"
   guidetolerance="10"
   inkscape:pageopacity="0"
   inkscape:pageshadow="2"
   inkscape:window-width="1912"
   inkscape:window-height="1136"
   id="namedview90"
   showgrid="false"
   inkscape:zoom="2.9980164"
   inkscape:cx="201.02543"
   inkscape:cy="130.08236"
   inkscape:window-x="908"
   inkscape:window-y="70"
   inkscape:window-maximized="0"
   inkscape:current-layer="Calque_1"
   inkscape:document-rotation="0"
   inkscape:snap-text-baseline="true"
   fit-margin-top="0"
   fit-margin-left="0"
   fit-margin-right="0"
   fit-margin-bottom="0" />





<path
   id="path999"
   style="fill:#e8e8e8;fill-opacity:1;stroke:#6d69ad;stroke-width:0;stroke-miterlimit:4;stroke-dasharray:none;stroke-opacity:1"
   d="m 611.73782,169.11203 a 58.70541,58.70541 0 0 1 -56.43239,58.66139 58.70541,58.70541 0 0 1 -60.80241,-54.11875 58.70541,58.70541 0 0 1 51.72395,-62.85225 58.70541,58.70541 0 0 1 64.80783,49.25157"
   clip-path="url(#clipPath879)"
   inkscape:path-effect="#path-effect889"
   inkscape:original-d="m 611.73782,169.11203 a 58.70541,58.70541 0 0 1 -56.43239,58.66139 58.70541,58.70541 0 0 1 -60.80241,-54.11875 58.70541,58.70541 0 0 1 51.72395,-62.85225 58.70541,58.70541 0 0 1 64.80783,49.25157"
   transform="translate(-487.05412,-110.40163)" /><linearGradient
   id="SVGID_1_"
   gradientUnits="userSpaceOnUse"
   x1="254.2549"
   y1="192.978"
   x2="295.32809"
   y2="192.978">
	<stop
   offset="0"
   style="stop-color:#5F4C3F"
   id="stop24" />
	<stop
   offset="1"
   style="stop-color:#5F4C3F"
   id="stop26" />
</linearGradient>

<linearGradient
   id="SVGID_2_"
   gradientUnits="userSpaceOnUse"
   x1="520.97748"
   y1="192.978"
   x2="562.0459"
   y2="192.978"
   gradientTransform="matrix(1.0648586,0,0,1.0648586,-32.394635,-7.5556984)">
	<stop
   offset="0"
   style="stop-color:#5F4C3F"
   id="stop31" />
	<stop
   offset="1"
   style="stop-color:#5F4C3F"
   id="stop33" />
</linearGradient>


<g
   id="_x36_cWHYS_8_"
   transform="translate(-101.46583,-66.03896)">
	<g
   id="g86">
		<g
   id="g84">
			
			
		</g>
	</g>
</g>
<text
   xml:space="preserve"
   style="font-style:normal;font-weight:normal;font-size:40px;line-height:1.25;font-family:sans-serif;fill:#000000;fill-opacity:1;stroke:none"
   x="305.46991"
   y="21.352154"
   id="text900"><tspan
     sodipodi:role="line"
     id="tspan898"
     x="305.46991"
     y="21.352154" /></text><path
   d="m 17.771962,146.67665 q -3.48,0.61537 -8.6821901,-1.52075 -6.0778,-2.49569 -8.16697005,-8.06868 -2.08916995,-5.57303 0.55142005,-11.9407 3.04987,-7.35366 8.8196601,-9.93046 5.80759,-2.59424 12.55498,0.17637 4.66135,1.91403 6.18653,4.12303 l -3.13091,7.55119 q -1.68496,-3.13188 -4.82688,-4.42201 -3.50247,-1.43814 -6.49745,-0.0301 -2.95756,1.39045 -4.5933301,5.33503 -1.58888,3.83193 -0.54314,6.83323 1.0576001,2.97322 4.4827901,4.37967 3.03892,1.24779 6.81365,0.3578 z"
   style="font-style:normal;font-variant:normal;font-weight:bold;font-stretch:normal;font-size:40px;line-height:1.25;font-family:Gisha;-inkscape-font-specification:'Gisha Bold';white-space:pre;fill:#e8e8e8;fill-opacity:1;stroke-width:1.492"
   id="path974" /><path
   d="m 40.458412,157.93952 q -6.96339,-1.51846 -10.01777,-6.64882 -3.02057,-5.15417 -1.3964,-12.47978 1.67715,-7.56382 6.75563,-10.92065 5.08526,-3.38657 12.13025,-1.85029 6.93618,1.5126 9.92956,6.6608 2.99998,5.11846 1.44183,12.14629 -1.68379,7.5936 -6.74086,11.11119 -5.03004,3.52347 -12.10224,1.98126 z m 5.71073,-24.72863 q -3.04647,-0.66436 -5.24131,1.26089 -2.19482,1.92521 -3.12574,6.12405 -1.948,8.78473 4.52608,10.1965 6.17458,1.34648 8.17508,-7.67655 1.89497,-8.54653 -4.33411,-9.90489 z"
   style="font-style:normal;font-variant:normal;font-weight:bold;font-stretch:normal;font-size:40px;line-height:1.25;font-family:Gisha;-inkscape-font-specification:'Gisha Bold';white-space:pre;fill:#e8e8e8;fill-opacity:1;stroke-width:1.492"
   id="path976" /><path
   d="m 92.172132,156.81964 q -2.66016,2.32656 -8.21733,3.18889 -6.49252,1.00747 -11.16295,-2.68175 -4.67041,-3.68923 -5.70378,-10.5048 -1.19303,-7.87113 2.41242,-13.06066 3.62875,-5.224 10.83656,-6.34249 4.97944,-0.77271 7.42729,0.32908 l 1.22584,8.08211 q -3.06193,-1.80901 -6.41824,-1.28819 -3.74145,0.58061 -5.57652,3.3347 -1.81213,2.71969 -1.17199,6.94174 0.622,4.10138 3.06931,6.12922 2.44289,1.99768 6.10181,1.42991 3.24627,-0.50378 6.01663,-3.21779 z"
   style="font-style:normal;font-variant:normal;font-weight:bold;font-stretch:normal;font-size:40px;line-height:1.25;font-family:Gisha;-inkscape-font-specification:'Gisha Bold';white-space:pre;fill:#e8e8e8;fill-opacity:1;stroke-width:1.492"
   id="path978" /><path
   d="m 119.173,151.34116 q -6.44131,3.05027 -11.99311,0.85315 -5.53958,-2.23661 -8.727348,-9.0293 -3.2913,-7.01368 -1.31997,-12.77329 1.95852,-5.78731 8.475328,-8.87329 6.41618,-3.03828 11.93058,-0.78979 5.50145,2.22093 8.55963,8.73748 3.30424,7.0413 1.44806,12.91513 -1.83121,5.86201 -8.37317,8.95991 z m -10.58012,-23.06899 q -2.81809,1.33446 -3.38029,4.19937 -0.56222,2.8649 1.26492,6.75829 3.82244,8.14585 9.81116,5.30994 5.71165,-2.7047 1.78523,-11.07133 -3.71898,-7.92485 -9.48102,-5.19627 z"
   style="font-style:normal;font-variant:normal;font-weight:bold;font-stretch:normal;font-size:40px;line-height:1.25;font-family:Gisha;-inkscape-font-specification:'Gisha Bold';white-space:pre;fill:#e8e8e8;fill-opacity:1;stroke-width:1.492"
   id="path980" /><text
   xml:space="preserve"
   style="font-size:40px;line-height:1.25;font-family:Arial;-inkscape-font-specification:'Arial, Normal'"
   x="508.27069"
   y="139.76378"
   id="text857"><tspan
     sodipodi:role="line"
     id="tspan855"
     x="508.27069"
     y="139.76378"
     style="font-style:normal;font-variant:normal;font-weight:bold;font-stretch:normal;font-size:40px;font-family:Arial;-inkscape-font-specification:'Arial, Bold';font-variant-ligatures:normal;font-variant-caps:normal;font-variant-numeric:normal;font-variant-east-asian:normal" /></text><text
   xml:space="preserve"
   style="font-size:40px;line-height:1.25;font-family:Arial;-inkscape-font-specification:'Arial, Normal'"
   x="516.94305"
   y="138.42958"
   id="text861"><tspan
     sodipodi:role="line"
     id="tspan859"
     x="516.94305"
     y="138.42958" /></text><text
   xml:space="preserve"
   id="text867"
   style="font-size:40px;line-height:1.25;font-family:Arial;-inkscape-font-specification:'Arial, Normal';white-space:pre;shape-inside:url(#rect869);"
   transform="translate(-101.46583,-66.03896)"><tspan
     style="visibility:hidden"
     x="515.33984"
     y="359.24307"><tspan
       dx="0 22.246094 22.246094 22.246094">baba</tspan></tspan></text></svg>
